<?xml version="1.0" encoding="utf-8"?>
<!-- Generator: Adobe Illustrator 24.3.0, SVG Export Plug-In . SVG Version: 6.00 Build 0)  -->
<svg version="1.1" id="레이어_1" xmlns="http://www.w3.org/2000/svg" xmlns:xlink="http://www.w3.org/1999/xlink" x="0px"
	 y="0px" viewBox="0 0 44.103 31.558" style="enable-background:new 0 0 44.103 31.558;" xml:space="preserve">
<g id="그룹_2426" transform="translate(-141 -739.869)">
	<path id="패스_524" d="M150.336,739.869l5.339,3.211l-4.642,6.7c1.209,0.111,2.411,0.29,3.6,0.536
		c5.722,1.589,9.072,7.516,7.482,13.237c-1.589,5.722-7.516,9.072-13.237,7.482c-4.407-1.224-7.557-5.102-7.852-9.667
		c-0.065-2.676,0.463-5.333,1.546-7.781c1.954-4.807,4.505-9.349,7.594-13.519C150.205,740.015,150.253,739.969,150.336,739.869
		 M147.376,760.538c-0.082,2.328,1.665,4.317,3.984,4.536c2.428,0.211,4.575-1.569,4.818-3.994c0.225-2.42-1.555-4.563-3.974-4.788
		c-0.055-0.005-0.11-0.009-0.165-0.012c-2.393-0.176-4.476,1.621-4.652,4.015C147.381,760.376,147.377,760.457,147.376,760.538"/>
	<path id="패스_525" d="M172.887,739.872c1.719,1.035,3.409,2.054,5.109,3.075c0.069,0.048,0.136,0.1,0.2,0.155l-4.636,6.7
		c1.218,0.157,2.3,0.208,3.33,0.446c5.76,1.435,9.266,7.267,7.832,13.027c-1.435,5.76-7.267,9.266-13.027,7.832
		c-4.581-1.141-7.882-5.138-8.135-9.853c-0.048-2.359,0.384-4.703,1.27-6.89C166.84,749.188,169.551,744.312,172.887,739.872
		 M174.262,765.082c2.441,0.044,4.455-1.898,4.5-4.339c0.044-2.441-1.898-4.455-4.339-4.5c-0.043-0.001-0.086-0.001-0.129,0
		c-2.476,0.04-4.451,2.08-4.411,4.556c0.001,0.032,0.001,0.064,0.003,0.096c0.13,2.33,2.044,4.16,4.377,4.187"/>
</g>
</svg>
