<?xml version="1.0" encoding="utf-8"?>
<!-- Generator: Adobe Illustrator 24.3.0, SVG Export Plug-In . SVG Version: 6.00 Build 0)  -->
<svg version="1.1" id="레이어_1" xmlns="http://www.w3.org/2000/svg" xmlns:xlink="http://www.w3.org/1999/xlink" x="0px"
	 y="0px" viewBox="0 0 44.103 31.558" style="enable-background:new 0 0 44.103 31.558;" xml:space="preserve">
<g id="그룹_2427" transform="translate(-1259 -1108.868)">
	<path id="패스_524" d="M1293.767,1140.426l-5.339-3.211l4.642-6.7c-1.209-0.111-2.411-0.29-3.6-0.536
		c-5.722-1.589-9.072-7.516-7.482-13.237s7.516-9.072,13.237-7.482c4.407,1.224,7.557,5.102,7.852,9.667
		c0.065,2.676-0.463,5.333-1.546,7.781c-1.954,4.807-4.505,9.349-7.594,13.519C1293.898,1140.28,1293.85,1140.326,1293.767,1140.426
		 M1296.727,1119.757c0.082-2.328-1.665-4.317-3.984-4.536c-2.428-0.211-4.575,1.569-4.818,3.994
		c-0.225,2.42,1.555,4.563,3.974,4.788c0.055,0.005,0.11,0.009,0.165,0.012c2.393,0.176,4.476-1.621,4.652-4.015
		C1296.722,1119.919,1296.726,1119.838,1296.727,1119.757"/>
	<path id="패스_525" d="M1271.215,1140.423c-1.719-1.035-3.409-2.054-5.109-3.075c-0.069-0.048-0.136-0.1-0.2-0.155l4.636-6.7
		c-1.218-0.157-2.3-0.208-3.33-0.446c-5.76-1.435-9.266-7.267-7.832-13.027c1.434-5.76,7.267-9.266,13.027-7.832
		c4.581,1.141,7.882,5.138,8.135,9.853c0.048,2.359-0.384,4.703-1.27,6.89C1277.261,1131.107,1274.551,1135.983,1271.215,1140.423
		 M1269.84,1115.213c-2.441-0.045-4.455,1.898-4.5,4.339c-0.045,2.441,1.898,4.455,4.339,4.5c0.043,0.001,0.086,0.001,0.129,0
		c2.476-0.04,4.451-2.08,4.411-4.556c-0.001-0.032-0.001-0.064-0.003-0.096C1274.086,1117.07,1272.172,1115.24,1269.84,1115.213"/>
</g>
</svg>
